<?xml version="1.0" encoding="utf-8"?>
<!-- Generator: Adobe Illustrator 27.3.1, SVG Export Plug-In . SVG Version: 6.00 Build 0)  -->
<svg version="1.1" id="Layer_1" xmlns="http://www.w3.org/2000/svg" xmlns:xlink="http://www.w3.org/1999/xlink" x="0px" y="0px"
	 viewBox="0 0 24 24" style="enable-background:new 0 0 24 24;" xml:space="preserve">
<style type="text/css">
	.st0{fill:#563D7C;}
	.st1{fill:#F1E05A;}
	.st2{fill:#E34C26;}
</style>
<g>
	<path class="st0" d="M7,4.5c-2.3,0-4.2,1.9-4.2,4.1c0,0.6,0.2,1.2,0.4,1.7C2,11,1.3,12.2,1.3,13.5c0,1.9,1.6,3.6,3.5,3.6
		c0.3,0,0.6,0,0.8-0.1c0.3,1.3,1.5,2.2,2.9,2.5V4.8C8,4.6,7.5,4.5,7,4.5z"/>
	<path class="st1" d="M18.2,6.5c-0.7,0-1.3,0.2-1.9,0.4c-0.2-0.4-0.5-0.7-0.8-1v11.4c0.7-0.3,1.3-0.8,1.7-1.5
		c0.3,0.1,0.6,0.1,0.9,0.1c2.5,0,4.6-2,4.6-4.7C22.8,8.6,20.8,6.5,18.2,6.5z"/>
	<path class="st2" d="M13,5c-1.1,0-2,0.5-2.7,1.2C9.8,5.5,9.2,5.1,8.5,4.8v14.7c0.2,0,0.5,0.1,0.7,0.1c1.7,0,3-1,3.5-2.4
		c0.5,0.2,1,0.4,1.5,0.4c0.5,0,0.9-0.1,1.3-0.3V5.9C14.8,5.3,13.9,5,13,5z"/>
</g>
</svg>
